# xmcd CD database file
#
# Track frame offsets:
#	150
#	15731
#	27099
#	38781
#	49629
#	63074
#	75180
#	87358
#	103191
#	114849
#	136186
#	148352
#	161880
#	174630
#	194771
#	210780
#	228892
#	246539
#
# Disc length: 3484 seconds
#
# Revision: 0
# Processed by: cddbd v1.5.2PL0 Copyright (c) Steve Scherf et al.
# Submitted via: CDex 1.51
#
DISCID=eb0d9a12
DTITLE=Various Artits - Body Line
DYEAR=1900
DGENRE=New Age
TTITLE0=Warm Sienna
TTITLE1=Haven from the Sea
TTITLE2=Luna Dream
TTITLE3=Lone Strings
TTITLE4=On the Wings of a Dream
TTITLE5=Spring Waters
TTITLE6=Water Gardens
TTITLE7=Dreamscape
TTITLE8=A Garden of Thoughts
TTITLE9=Harvest Moon
TTITLE10=Gentle Dreams
TTITLE11=Sea of Tranquillity
TTITLE12=Equinox
TTITLE13=Organic
TTITLE14=Sunsets
TTITLE15=Billions and Billions...
TTITLE16=Distance
TTITLE17=Margins
EXTD=
EXTT0=
EXTT1=
EXTT2=
EXTT3=
EXTT4=
EXTT5=
EXTT6=
EXTT7=
EXTT8=
EXTT9=
EXTT10=
EXTT11=
EXTT12=
EXTT13=
EXTT14=
EXTT15=
EXTT16=
EXTT17=
PLAYORDER=
